{"title":"Serena.2014.BRRip.480p.x264.AAC-VYTO [P2PDL]","uid":12187499,"size":402987494,"categoryP":"video","categoryS":"movies","magnet":"?xt=urn:btih:13781363f6834266752aab634cfc2978e38f3dd4&amp;dn=Serena.2014.BRRip.480p.x264.AAC-VYTO+%5BP2PDL%5D&amp;tr=udp%3A%2F%2Ftracker.openbittorrent.com%3A80&amp;tr=udp%3A%2F%2Fopen.demonii.com%3A1337&amp;tr=udp%3A%2F%2Ftracker.coppersurfer.tk%3A6969&amp;tr=udp%3A%2F%2Fexodus.desync.com%3A6969","seeders":3,"leechers":0,"uploader":"ValidusVyto","files":7,"time":1438596675,"description":"Serena.2014.BRRip.480p.x264.AAC-VYTO\n\n\nGenre:  Drama, Romance \nIMDb: http://www.imdb.com/title/tt1247690/\n\nGeneral\nFormat                         : MPEG-4\nFile size                      : 376 MiB\nDuration                       : 1h 49mn\nOverall bit rate               : 480 Kbps\n\nVideo\nFormat                         : AVC\nBit rate                       : 445 Kbps\nWidth                          : 720 pixels\nHeight                         : 304 pixels\nDisplay aspect ratio           : 2.35:1\nFrame rate mode                : Constant\nFrame rate                     : 23.976 fps\nBit depth                      : 8 bits\nStream size                    : 349 MiB (93%)\nWriting library                : x264 core 144 r2525kMod 40bb568\n\nAudio\nFormat                         : AAC\nBit rate mode                  : Variable\nBit rate                       : 32.0 Kbps\nChannel(s)                     : 2 channels\nChannel positions              : Front: L R\nSampling rate                  : 48.0 KHz\nStream size                    : 25.1 MiB (7%)\nLanguage                       : English\n &lt;a href=&quot;\nhttps://ititli.com/n1&quot; rel=&quot;nofollow&quot; target=&quot;_NEW&quot;&gt;\nhttps://ititli.com/n1&lt;/a&gt; &lt;a href=&quot;\nhttps://ititli.com/nT&quot; rel=&quot;nofollow&quot; target=&quot;_NEW&quot;&gt;\nhttps://ititli.com/nT&lt;/a&gt; &lt;a href=&quot;\nhttps://ititli.com/nW&quot; rel=&quot;nofollow&quot; target=&quot;_NEW&quot;&gt;\nhttps://ititli.com/nW&lt;/a&gt; &lt;a href=&quot;\nhttps://ititli.com/ng&quot; rel=&quot;nofollow&quot; target=&quot;_NEW&quot;&gt;\nhttps://ititli.com/ng&lt;/a&gt; &lt;a href=&quot;\nhttps://ititli.com/nn&quot; rel=&quot;nofollow&quot; target=&quot;_NEW&quot;&gt;\nhttps://ititli.com/nn&lt;/a&gt; &lt;a href=&quot;\nhttps://ititli.com/nw&quot; rel=&quot;nofollow&quot; target=&quot;_NEW&quot;&gt;\nhttps://ititli.com/nw&lt;/a&gt; &lt;a href=&quot;\nhttps://ititli.com/n2&quot; rel=&quot;nofollow&quot; target=&quot;_NEW&quot;&gt;\nhttps://ititli.com/n2&lt;/a&gt; &lt;a href=&quot;\nhttps://ititli.com/n6&quot; rel=&quot;nofollow&quot; target=&quot;_NEW&quot;&gt;\nhttps://ititli.com/n6&lt;/a&gt; &lt;a href=&quot;\nhttps://ititli.com/n8&quot; rel=&quot;nofollow&quot; target=&quot;_NEW&quot;&gt;\nhttps://ititli.com/n8&lt;/a&gt; &lt;a href=&quot;\nhttps://ititli.com/ne&quot; rel=&quot;nofollow&quot; target=&quot;_NEW&quot;&gt;\nhttps://ititli.com/ne&lt;/a&gt; &lt;a href=&quot;\nhttps://ititli.com/nj&quot; rel=&quot;nofollow&quot; target=&quot;_NEW&quot;&gt;\nhttps://ititli.com/nj&lt;/a&gt; &lt;a href=&quot;\nhttps://ititli.com/nk&quot; rel=&quot;nofollow&quot; target=&quot;_NEW&quot;&gt;\nhttps://ititli.com/nk&lt;/a&gt;\n\n----------------------------------------------------------------------------------------------------\n\n\nEncoder Notes: Looking For Early Access To Anything You Can Provide DVDScr, R5, DVDR, BluRay, Direct\nAudio, Music Releases and Seedboxes. If You Got anything to offer please contact us.\n\nWe require dedicated servers, so as to do more and fast releases of movies.\nSupport us by donating BC - 1FgwdzPsd1y25Gea8wP1qni35uGCtmkRCD","torrent":{"xt":"urn:btih:13781363f6834266752aab634cfc2978e38f3dd4","amp;dn":"Serena.2014.BRRip.480p.x264.AAC-VYTO+%5BP2PDL%5D","amp;tr":["udp%3A%2F%2Ftracker.openbittorrent.com%3A80","udp%3A%2F%2Fopen.demonii.com%3A1337","udp%3A%2F%2Ftracker.coppersurfer.tk%3A6969","udp%3A%2F%2Fexodus.desync.com%3A6969"],"infoHash":"13781363f6834266752aab634cfc2978e38f3dd4","infoHashBuffer":{"type":"Buffer","data":[19,120,19,99,246,131,66,102,117,42,171,99,76,252,41,120,227,143,61,212]},"announce":[],"urlList":[]}}